<?xml version="1.0" standalone="no"?>
<!DOCTYPE svg PUBLIC "-//W3C//DTD SVG 20010904//EN"
 "http://www.w3.org/TR/2001/REC-SVG-20010904/DTD/svg10.dtd">
<svg version="1.0" xmlns="http://www.w3.org/2000/svg"
 width="260.000000pt" height="260.000000pt" viewBox="0 0 260.000000 260.000000"
 preserveAspectRatio="xMidYMid meet">
<metadata>
Created by potrace 1.14, written by Peter Selinger 2001-2017
</metadata>
<g transform="translate(0.000000,260.000000) scale(0.100000,-0.100000)"
fill="#000000" stroke="none">
<path d="M980 2392 l-25 -8 -3 -967 c-2 -915 -1 -968 15 -975 32 -13 181 -8
195 6 10 10 14 95 18 364 l5 351 46 -59 c25 -33 148 -193 273 -356 202 -264
232 -299 264 -308 49 -13 141 -13 181 1 59 21 47 43 -162 314 -106 138 -228
296 -271 353 l-79 103 246 248 c219 219 247 251 247 279 0 40 -18 45 -139 41
-108 -5 -75 22 -389 -322 l-217 -237 -5 574 c-4 449 -8 578 -18 588 -14 14
-143 21 -182 10z"/>
</g>
</svg>
